<svg xmlns="http://www.w3.org/2000/svg" viewBox="0 0 54.56 54.44" style="stroke: url(#grad); fill: none;">
    <defs>
        <linearGradient id="grad" x1="0%" y1="0%" x2="100%" y2="0%">
            <stop offset="0%" style="stop-color: red; stop-opacity: 1;" />
            <stop offset="100%" style="stop-color: yellow; stop-opacity: 1;" /> 
        </linearGradient>
    </defs>
    <path class="cls-1" d="M29.82,26.11S22.15,27.22,18,23.71"/><path class="cls-1" d="M35.54,18.33S28.89,19.86,25.88,17"/><path class="cls-1" d="M23.42,34.06s-5.93,1.13-8.26-1.56"/><path class="cls-1" d="M9.56,28.8a23,23,0,0,1,32.65-17"/><path class="cls-1" d="M13,45.1A22.93,22.93,0,0,1,9.26,32.5"/><path class="cls-1" d="M13.65,53.44H12.31a3,3,0,0,1-3-3.38l.11-.82L7.69,49a3.77,3.77,0,0,1-2.78-5.62l.9-1.55L4.25,41.3a3.76,3.76,0,0,1-1.51-6.13L3.86,34l-1.2-.81a3.77,3.77,0,0,1,.21-6.38l1.25-.72L3.25,25a3.77,3.77,0,0,1,2.17-6l1.38-.29-.56-1.49A3.77,3.77,0,0,1,10,12.07l1.6.1-.17-1.76a3.77,3.77,0,0,1,4.92-3.94L18,7l.32-1.53a3.76,3.76,0,0,1,6-2.23l1.24.94.86-1.4a3.77,3.77,0,0,1,6.34-.14L33.67,4l1.41-1.24a3.76,3.76,0,0,1,6.05,1.6l.62,1.78,1.79-1A3.76,3.76,0,0,1,49.07,8l.27,2,1.52-.09a2.44,2.44,0,0,1,2.6,2.27l.1,1.45Z"/>
</svg>